<svg width="128" height="32" viewBox="0 0 128 32" fill="none" xmlns="http://www.w3.org/2000/svg">
<path d="M18.3675 17.9527C18.3675 15.2585 17.7356 13.0997 16.4716 11.4763C14.9688 9.52904 12.7362 8.55542 9.77388 8.55542C8.03422 8.61367 6.32947 9.05613 4.78321 9.8507C2.98498 10.6991 2.07926 11.4698 2.07926 12.1563C2.147 12.2968 2.2398 12.4241 2.35301 12.5319C2.49071 12.6613 2.59178 12.8243 2.64617 13.0047H3.87749C5.22399 12.3009 6.14699 11.8325 6.6465 11.5993C8.42301 10.7704 9.66105 10.3558 10.3604 10.3558C11.6159 10.3558 12.821 10.8467 13.7157 11.7224C14.1158 12.0337 14.4456 12.4253 14.6836 12.8716C14.9216 13.3179 15.0624 13.809 15.097 14.3129C15.097 16.04 13.7939 17.2813 11.1878 18.0369L3.9101 20.1093C1.30397 21.3096 0.000911771 23.2892 0.000911771 26.0481C-0.0133611 26.8141 0.140087 27.574 0.450589 28.2752C0.761091 28.9763 1.22123 29.602 1.79914 30.1088C2.95688 31.1834 4.4895 31.7686 6.07323 31.7409C7.18358 31.7286 8.27852 31.4813 9.28523 31.0155C10.2172 30.5943 11.0927 30.0591 11.8914 29.4223C11.2789 29.4806 10.686 29.526 10.1127 29.5713C9.53934 29.6166 9.03124 29.6296 8.57517 29.6296C7.34217 29.6959 6.11258 29.4461 5.00463 28.9042C4.4368 28.5718 3.97532 28.0864 3.67325 27.5043C3.37119 26.9221 3.24096 26.2668 3.2977 25.6142C3.2977 23.9433 4.43134 22.3631 6.69867 20.8735C8.74014 19.5307 10.5644 18.8615 12.1715 18.8658C12.6185 18.8275 13.0685 18.8898 13.4881 19.0478C13.9076 19.2059 14.2861 19.4558 14.5953 19.779C15.1687 20.4396 15.4552 21.519 15.4552 23.0172V23.6648C15.4554 24.3344 15.3134 24.9965 15.0383 25.6078C14.4446 26.8081 13.6787 27.9163 12.7645 28.8977C13.6191 29.2142 14.3188 29.8448 14.7191 30.6593C14.9393 31.033 15.2622 31.3364 15.6501 31.5337C16.0379 31.731 16.4744 31.8141 16.9081 31.7732C17.286 31.7732 17.6248 31.4559 17.9311 30.8212C18.2306 30.2168 18.3866 29.5521 18.3871 28.8783L18.3675 17.9527Z" fill="#6C98C9"/>
<path d="M33.1576 8.75628C32.9645 8.69138 32.7752 8.61568 32.5907 8.52958C32.2499 8.4459 31.899 8.41103 31.5483 8.42598C30.4355 8.51357 29.3803 8.95399 28.5382 9.68239C27.4241 10.5178 26.5379 10.9388 25.8668 10.9388C25.1868 10.8494 24.5446 10.5761 24.0101 10.1487C23.5747 9.79184 23.0718 9.5254 22.5311 9.36506C22.1858 9.36506 21.8796 9.63707 21.5603 10.1811C21.2955 10.61 21.1412 11.0971 21.1108 11.5994V29.526C21.0611 30.0033 21.171 30.4836 21.4235 30.8925C21.8303 31.2096 22.2666 31.4872 22.7266 31.7215C23.0796 31.4055 23.3885 31.0439 23.6452 30.6464C23.8796 30.2063 23.9941 29.7129 23.9775 29.2151V21.6767C23.9355 19.3182 24.6928 17.0143 26.1276 15.1355C27.2602 13.692 28.6711 12.4877 30.2777 11.5929L33.1772 9.99973L33.1576 8.75628Z" fill="#949698"/>
<path d="M50.5795 26.4369C49.9732 27.2853 49.165 27.9712 48.227 28.4334C47.2891 28.8956 46.2506 29.1197 45.2043 29.0858C43.505 29.1772 41.8298 28.655 40.4872 27.6156C39.5313 26.785 38.8613 25.6774 38.5716 24.4487C38.3134 23.4285 38.1931 22.3788 38.2133 21.327V20.0836C38.2133 17.0354 38.6889 14.7773 39.6402 13.3093C40.6957 11.6729 42.4525 10.8526 44.911 10.8483C45.9987 10.8036 47.0809 11.0261 48.0616 11.496C49.0423 11.9659 49.8914 12.6688 50.5338 13.5425C51.8738 15.4558 52.5424 17.7546 52.4362 20.0836C52.5323 22.3462 51.8802 24.5777 50.5795 26.4369ZM53.4788 12.6487C52.4798 11.1702 51.0884 9.9956 49.4588 9.25511C48.4677 8.75197 47.3783 8.46909 46.2662 8.42611C44.938 8.52231 43.6414 8.87422 42.4483 9.46231C41.8345 9.74379 41.1695 9.89804 40.4937 9.91567C39.9717 9.94336 39.4567 9.7861 39.0403 9.47184C38.624 9.15759 38.3332 8.70674 38.2199 8.19945C37.9576 7.00259 37.8523 5.77698 37.907 4.55325C37.907 3.42636 37.9071 2.61033 37.8484 2.19584C37.7181 0.900567 37.2751 0.25293 36.5128 0.25293C36.3418 0.261961 36.1761 0.31431 36.0313 0.404996C35.8864 0.495683 35.7673 0.621684 35.6853 0.771032C35.4521 1.13634 35.3341 1.56261 35.3465 1.99508C35.3009 3.14139 35.2618 4.52084 35.2162 6.14641C35.1706 7.77198 35.1381 10.0711 35.0925 13.0567C35.0469 16.0423 35.0338 20.7895 35.0338 27.3048C34.9756 28.4148 35.0654 29.5276 35.3008 30.6142C35.4095 30.9548 35.6326 31.248 35.9327 31.4448C36.2327 31.6417 36.5914 31.7302 36.9492 31.6957C37.7476 31.7473 38.5388 31.518 39.1841 31.0481C39.4959 30.7335 39.8566 30.4711 40.2526 30.2709C40.3957 30.2608 40.5394 30.2608 40.6825 30.2709C41.5751 30.6077 42.4482 30.9186 43.2887 31.2488C44.1847 31.5702 45.1312 31.7303 46.0838 31.7216C47.4335 31.736 48.7657 31.4162 49.9601 30.7909C51.1544 30.1657 52.1733 29.2547 52.9249 28.1402C54.6345 25.763 55.5133 22.8944 55.4269 19.9735C55.5428 17.3917 54.8631 14.8363 53.4788 12.6487Z" fill="#949698"/>
<path d="M60.802 10.2913C60.8124 9.79872 60.6813 9.31347 60.4241 8.89237C60.3245 8.70593 60.1751 8.55043 59.9924 8.44301C59.8096 8.33559 59.6005 8.28042 59.3882 8.28359C58.6845 8.28359 58.2349 8.71103 58.0329 9.57886C57.7767 11.2021 57.6763 12.8458 57.7333 14.4879V25.977C57.7333 29.811 58.235 31.7281 59.2384 31.7281C59.4596 31.7046 59.6716 31.6273 59.8557 31.5031C60.0398 31.3788 60.1902 31.2114 60.2938 31.0157C60.6317 30.5408 60.8097 29.9717 60.802 29.3901V10.2913ZM60.9388 2.74625C61.0827 2.44479 61.1562 2.11493 61.1539 1.78128C61.1685 1.51522 61.1201 1.24949 61.0126 1.00541C60.9051 0.761325 60.7415 0.545718 60.5349 0.375912C60.213 0.13644 59.8227 0.00488417 59.4207 0.000270891C59.1653 -0.00409299 58.9119 0.0443098 58.6764 0.142416C58.4409 0.240522 58.2284 0.386196 58.0525 0.570196C57.869 0.754046 57.7244 0.9725 57.627 1.21273C57.5297 1.45297 57.4815 1.71016 57.4856 1.96912C57.4726 2.26231 57.5338 2.55406 57.6636 2.81768C57.7934 3.0813 57.9876 3.30834 58.2284 3.47808C58.5433 3.67419 58.9058 3.78166 59.2773 3.78898C59.6436 3.78708 60.0014 3.67902 60.3068 3.47808C60.576 3.29082 60.7934 3.03912 60.9388 2.74625Z" fill="#949698"/>
<path d="M76.354 19.6886L69.6823 17.1628C67.2912 16.2237 66.0989 14.9997 66.0989 13.4777C66.2058 12.5818 66.6621 11.7633 67.3695 11.1981C67.8348 10.729 68.3897 10.3572 69.0018 10.1048C69.6139 9.85227 70.2707 9.72414 70.9334 9.72793C71.8117 9.76219 72.6758 9.95988 73.4808 10.3108C74.3495 10.6519 75.3573 11.0599 76.504 11.5348C76.6749 11.4982 76.8366 11.4277 76.9796 11.3276C77.0614 11.2753 77.156 11.2462 77.2532 11.2434V10.0388C76.4296 9.39736 75.502 8.90022 74.5103 8.56867C73.3369 8.30812 72.1349 8.19712 70.9334 8.23837C68.5401 8.23837 66.6398 8.76295 65.2325 9.81212C64.5673 10.2694 64.026 10.8828 63.6566 11.598C63.2872 12.3131 63.1012 13.1079 63.115 13.9117C63.115 15.9237 64.3376 17.5536 66.783 18.8013C69.0504 19.6649 71.3242 20.5413 73.6045 21.4308C76.0348 22.4605 77.2532 23.7558 77.2532 25.3166C77.2532 26.2038 76.7449 27.0976 75.7285 28.0107C74.7089 28.9684 73.3589 29.5015 71.9561 29.5003C70.9031 29.4609 69.8714 29.1935 68.9331 28.7167C67.7224 28.0891 66.4683 27.548 65.1803 27.0976C64.9941 27.0748 64.8052 27.101 64.6325 27.1738C64.4598 27.2466 64.3094 27.3632 64.1965 27.5121C64.1093 27.6676 64.0477 27.8359 64.014 28.0107C64.9166 29.2604 66.1699 30.2178 67.617 30.7632C69.0531 31.3201 70.5842 31.595 72.1256 31.5728C74.1429 31.6556 76.1293 31.0576 77.7614 29.8759C78.4671 29.351 79.0354 28.6652 79.4187 27.8762C79.802 27.0872 79.9888 26.2183 79.9635 25.3425C79.9635 22.916 78.7603 21.0465 76.354 19.7339" fill="#6C98C9"/>
<path d="M97.5218 25.8734C96.9974 26.9072 96.1877 27.7712 95.1873 28.3642C94.187 28.9572 93.0373 29.2546 91.8731 29.2217C90.9843 29.2011 90.1119 28.98 89.3218 28.575C88.5317 28.1699 87.8445 27.5916 87.3123 26.8837C85.7791 25.0919 85.0146 22.6914 85.0189 19.682C84.9534 17.4264 85.6105 15.2084 86.8954 13.3481C87.4672 12.4662 88.2551 11.7433 89.185 11.2471C90.115 10.7509 91.1565 10.4978 92.2119 10.5115C93.2498 10.4732 94.2793 10.7097 95.1951 11.1967C96.1109 11.6838 96.8801 12.4038 97.4241 13.2833C98.5599 15.1757 99.1126 17.3576 99.0138 19.5589C99.0732 21.7604 98.5474 23.9385 97.4893 25.8734H97.5218ZM99.7632 12.3313C98.6288 10.7983 97.0816 9.61512 95.3001 8.91826C94.2548 8.45186 93.1288 8.19019 91.9838 8.14757C89.8064 8.08484 87.6798 8.80715 85.9962 10.1812C84.5538 11.4236 83.4682 13.0235 82.8495 14.8182C82.2514 16.4357 81.949 18.1465 81.9568 19.8698C81.8585 22.5095 82.6094 25.1116 84.1003 27.2982C85.2105 28.8413 86.7375 30.0403 88.5047 30.7566C89.664 31.2829 90.9182 31.5715 92.1923 31.605C94.3248 31.6711 96.4088 30.9645 98.0561 29.6168C99.4689 28.4021 100.534 26.8383 101.144 25.0833C101.737 23.516 102.042 21.8553 102.044 20.1807C102.048 16.977 101.299 14.3563 99.7958 12.3184L99.7632 12.3313Z" fill="#949698"/>
<path d="M113.849 0.615458C113.567 0.499931 113.263 0.44477 112.957 0.453548C112.298 0.408319 111.637 0.517802 111.028 0.773177C110.419 1.02855 109.879 1.42268 109.452 1.9237C108.818 2.83987 108.404 3.88756 108.24 4.98701C107.908 6.65792 107.719 7.57756 107.679 7.65528C107.428 8.21656 106.663 8.96135 105.386 9.88963C104.884 10.2523 104.63 10.602 104.63 10.9453C104.63 11.2885 104.923 11.7613 105.51 12.1887C106.095 12.582 106.627 13.0477 107.093 13.5747C107.702 14.4779 108.001 15.5522 107.947 16.638V30.1801C107.947 31.0739 108.233 31.6179 108.807 31.7927C108.97 31.8381 109.198 31.9028 109.491 32C109.888 31.5255 110.209 30.9924 110.442 30.4198C110.638 29.8645 110.733 29.2789 110.722 28.6905V15.2197C110.731 14.8212 110.836 14.4307 111.029 14.0812C111.222 13.7317 111.496 13.4336 111.83 13.212C112.734 12.5459 113.571 11.7955 114.332 10.9712C113.55 10.3235 112.781 9.61761 112.019 8.94407C111.644 8.66689 111.334 8.31297 111.109 7.90624C110.884 7.49951 110.75 7.04947 110.716 6.58666C110.717 6.14742 110.812 5.71355 110.996 5.3138C111.179 4.91404 111.445 4.5576 111.778 4.26814C113.515 2.61019 114.453 1.5308 114.592 1.02996L113.843 0.615458" fill="#949698"/>
<path d="M125.779 7.95341C125.069 7.67856 124.454 7.20639 124.006 6.59335C123.628 6.03638 123.42 4.8836 123.355 3.13498C123.29 1.38636 122.853 0.544434 121.993 0.544434C121.433 0.544434 121.055 0.920051 120.846 1.66483C120.683 2.36941 120.613 3.0923 120.638 3.81499V4.767C120.519 5.65432 120.133 6.48518 119.53 7.15034C118.944 7.83684 118.286 8.60752 117.576 9.44945L119.7 11.7421C120.264 12.3194 120.606 13.0762 120.664 13.8793V26.1844C120.614 27.5146 121.008 28.824 121.785 29.9083C122.233 30.4877 122.817 30.9494 123.486 31.2531C124.155 31.5567 124.888 31.6931 125.622 31.6504C126.134 31.695 126.649 31.6534 127.147 31.5274C127.316 31.1647 127.479 30.8021 127.648 30.4264C126.53 29.5957 125.464 28.6982 124.456 27.7387C123.852 26.9869 123.495 26.0692 123.433 25.1093C123.394 24.6776 123.374 22.821 123.374 19.5396C123.374 15.8222 123.602 13.3849 124.059 12.2278C124.22 11.8714 124.465 11.5588 124.773 11.3164C125.082 11.0741 125.445 10.9091 125.831 10.8354C126.3 10.6956 126.735 10.4605 127.109 10.1451C127.482 9.82961 127.786 9.44058 128 9.00258C127.285 8.60825 126.548 8.25577 125.792 7.94692" fill="#949698"/>
</svg>
